<svg width="393" height="463" viewBox="0 0 393 463" fill="none" xmlns="http://www.w3.org/2000/svg">
<path d="M107.896 354.601L99.521 349.766L98.6549 349.266L98.1549 350.132L83.0895 376.226C82.703 376.895 82.0121 377.22 81.5464 376.951L68.0537 369.161C67.5879 368.892 67.5236 368.131 67.9101 367.462L82.9756 341.368L83.4756 340.502L82.6095 340.002L74.1993 335.146M107.896 354.601L74.8115 334.37C74.8148 334.404 74.8212 334.404 74.809 334.383C74.807 334.379 74.8046 334.375 74.8018 334.371L74.6502 334.386L74.1993 335.146M107.896 354.601C108.361 354.871 109.052 354.548 109.439 353.879L107.896 354.601ZM74.1993 335.146L74.6378 334.387L73.8161 334.466C73.8459 334.774 73.9832 335.018 74.1993 335.146ZM74.81 334.344L83.9756 339.636L84.8416 340.136L84.3416 341.002L68.7761 367.962C68.6813 368.126 68.6562 368.27 68.6576 368.355L81.9424 376.025C82.0165 375.984 82.1286 375.89 82.2235 375.726L97.7889 348.766L98.2889 347.9L99.1549 348.4L108.293 353.676C108.367 353.635 108.479 353.541 108.574 353.378L74.81 334.344ZM74.81 334.344C74.8083 334.255 74.8365 334.114 74.9241 333.959C75.0194 333.791 75.1392 333.687 75.2233 333.645L105.836 319.207L108.692 352.96L108.692 352.961C108.699 353.045 108.675 353.203 108.574 353.378L74.81 334.344ZM108.398 353.736L108.396 353.735C108.397 353.735 108.397 353.736 108.398 353.736ZM81.8908 376.048C81.8907 376.048 81.8914 376.047 81.8926 376.047C81.8914 376.048 81.8908 376.048 81.8908 376.048ZM68.6637 368.411C68.6637 368.411 68.6635 368.41 68.6632 368.409C68.6636 368.41 68.6637 368.411 68.6637 368.411ZM105.967 318.958L105.613 318.207L105.967 318.958Z" stroke="white" stroke-width="2"/>
<path d="M129.896 207.601L121.521 202.766L120.655 202.266L120.155 203.132L105.089 229.226C104.703 229.895 104.012 230.22 103.546 229.951L90.0537 222.161C89.5879 221.892 89.5236 221.131 89.9101 220.462L104.976 194.368L105.476 193.502L104.61 193.002L96.1993 188.146M129.896 207.601L96.8115 187.37C96.8148 187.404 96.8212 187.404 96.809 187.383C96.807 187.379 96.8046 187.375 96.8018 187.371L96.6502 187.386L96.1993 188.146M129.896 207.601C130.361 207.871 131.052 207.548 131.439 206.879L129.896 207.601ZM96.1993 188.146L96.6378 187.387L95.8161 187.466C95.8459 187.774 95.9832 188.018 96.1993 188.146ZM96.81 187.344L105.976 192.636L106.842 193.136L106.342 194.002L90.7761 220.962C90.6813 221.126 90.6562 221.27 90.6576 221.355L103.942 229.025C104.016 228.984 104.129 228.89 104.223 228.726L119.789 201.766L120.289 200.9L121.155 201.4L130.293 206.676C130.367 206.635 130.479 206.541 130.574 206.378L96.81 187.344ZM96.81 187.344C96.8083 187.255 96.8365 187.114 96.9241 186.959C97.0194 186.791 97.1392 186.687 97.2233 186.645L127.836 172.207L130.692 205.96L130.692 205.961C130.699 206.045 130.675 206.203 130.574 206.378L96.81 187.344ZM130.398 206.736L130.396 206.735C130.397 206.735 130.397 206.736 130.398 206.736ZM103.891 229.048C103.891 229.048 103.891 229.047 103.893 229.047C103.891 229.048 103.891 229.048 103.891 229.048ZM90.6637 221.411C90.6637 221.411 90.6635 221.41 90.6632 221.409C90.6636 221.41 90.6637 221.411 90.6637 221.411ZM127.967 171.958L127.613 171.207L127.967 171.958Z" stroke="white" stroke-width="2"/>
<path d="M259.896 328.601L251.521 323.766L250.655 323.266L250.155 324.132L235.089 350.226C234.703 350.895 234.012 351.22 233.546 350.951L220.054 343.161C219.588 342.892 219.524 342.131 219.91 341.462L234.976 315.368L235.476 314.502L234.61 314.002L226.199 309.146M259.896 328.601L226.811 308.37C226.815 308.404 226.821 308.404 226.809 308.383C226.807 308.379 226.805 308.375 226.802 308.371L226.65 308.386L226.199 309.146M259.896 328.601C260.361 328.871 261.052 328.548 261.439 327.879L259.896 328.601ZM226.199 309.146L226.638 308.387L225.816 308.466C225.846 308.774 225.983 309.018 226.199 309.146ZM226.81 308.344L235.976 313.636L236.842 314.136L236.342 315.002L220.776 341.962C220.681 342.126 220.656 342.27 220.658 342.355L233.942 350.025C234.016 349.984 234.129 349.89 234.223 349.726L249.789 322.766L250.289 321.9L251.155 322.4L260.293 327.676C260.367 327.635 260.479 327.541 260.574 327.378L226.81 308.344ZM226.81 308.344C226.808 308.255 226.836 308.114 226.924 307.959C227.019 307.791 227.139 307.687 227.223 307.645L257.836 293.207L260.692 326.96L260.692 326.961C260.699 327.045 260.675 327.203 260.574 327.378L226.81 308.344ZM260.398 327.736L260.396 327.735C260.397 327.735 260.397 327.736 260.398 327.736ZM233.891 350.048C233.891 350.048 233.891 350.047 233.893 350.047C233.891 350.048 233.891 350.048 233.891 350.048ZM220.664 342.411C220.664 342.411 220.664 342.41 220.663 342.409C220.664 342.41 220.664 342.411 220.664 342.411ZM257.967 292.958L257.613 292.207L257.967 292.958Z" stroke="white" stroke-width="2"/>
<path d="M281.896 166.601L273.521 161.766L272.655 161.266L272.155 162.132L257.089 188.226C256.703 188.895 256.012 189.22 255.546 188.951L242.054 181.161C241.588 180.892 241.524 180.131 241.91 179.462L256.976 153.368L257.476 152.502L256.61 152.002L248.199 147.146M281.896 166.601L248.811 146.37C248.815 146.404 248.821 146.404 248.809 146.383C248.807 146.379 248.805 146.375 248.802 146.371L248.65 146.386L248.199 147.146M281.896 166.601C282.361 166.871 283.052 166.548 283.439 165.879L281.896 166.601ZM248.199 147.146L248.638 146.387L247.816 146.466C247.846 146.774 247.983 147.018 248.199 147.146ZM248.81 146.344L257.976 151.636L258.842 152.136L258.342 153.002L242.776 179.962C242.681 180.126 242.656 180.27 242.658 180.355L255.942 188.025C256.016 187.984 256.129 187.89 256.223 187.726L271.789 160.766L272.289 159.9L273.155 160.4L282.293 165.676C282.367 165.635 282.479 165.541 282.574 165.378L248.81 146.344ZM248.81 146.344C248.808 146.255 248.836 146.114 248.924 145.959C249.019 145.791 249.139 145.687 249.223 145.645L279.836 131.207L282.692 164.96L282.692 164.961C282.699 165.045 282.675 165.203 282.574 165.378L248.81 146.344ZM282.398 165.736L282.396 165.735C282.397 165.735 282.397 165.736 282.398 165.736ZM255.891 188.048C255.891 188.048 255.891 188.047 255.893 188.047C255.891 188.048 255.891 188.048 255.891 188.048ZM242.664 180.411C242.664 180.411 242.664 180.41 242.663 180.409C242.664 180.41 242.664 180.411 242.664 180.411ZM279.967 130.958L279.613 130.207L279.967 130.958Z" stroke="white" stroke-width="2"/>
<path d="M267.798 94.6009L259.423 89.7657L258.557 89.2657L258.057 90.1317L242.992 116.226C242.605 116.895 241.915 117.22 241.449 116.951L227.956 109.161C227.49 108.892 227.426 108.131 227.812 107.462L242.878 81.3679L243.378 80.5019L242.512 80.0019L234.102 75.1462M267.798 94.6009L234.714 74.3701C234.717 74.4043 234.724 74.4044 234.711 74.3828C234.709 74.3792 234.707 74.3753 234.704 74.371L234.553 74.3857L234.102 75.1462M267.798 94.6009C268.263 94.871 268.954 94.5476 269.341 93.8788L267.798 94.6009ZM234.102 75.1462L234.54 74.3869L233.718 74.4662C233.748 74.7745 233.886 75.0181 234.102 75.1462ZM234.712 74.3441L243.878 79.6358L244.744 80.1358L244.244 81.0019L228.678 107.962C228.584 108.126 228.559 108.27 228.56 108.355L241.845 116.025C241.919 115.984 242.031 115.89 242.126 115.726L257.691 88.7657L258.191 87.8997L259.057 88.3997L268.196 93.6757C268.269 93.6348 268.381 93.5414 268.476 93.3777L234.712 74.3441ZM234.712 74.3441C234.711 74.255 234.739 74.1142 234.826 73.9592C234.922 73.7907 235.042 73.687 235.126 73.6451L265.738 59.2072L268.594 92.9598L268.594 92.9609C268.601 93.0448 268.577 93.2032 268.476 93.3776L234.712 74.3441ZM268.3 93.7362L268.298 93.7348C268.299 93.7353 268.3 93.7357 268.3 93.7362ZM241.793 116.048C241.793 116.048 241.794 116.047 241.795 116.047C241.794 116.048 241.793 116.048 241.793 116.048ZM228.566 108.411C228.566 108.411 228.566 108.41 228.566 108.409C228.566 108.41 228.566 108.411 228.566 108.411ZM265.869 58.9581L265.515 58.2068L265.869 58.9581Z" stroke="white" stroke-width="2"/>
<path d="M163.896 46.6009L155.521 41.7657L154.655 41.2657L154.155 42.1317L139.089 68.2258C138.703 68.8952 138.012 69.2199 137.546 68.951L124.054 61.1609C123.588 60.892 123.524 60.1314 123.91 59.462L138.976 33.3679L139.476 32.5019L138.61 32.0019L130.199 27.1462M163.896 46.6009L130.811 26.3701C130.815 26.4043 130.821 26.4044 130.809 26.3828C130.807 26.3792 130.805 26.3753 130.802 26.371L130.65 26.3857L130.199 27.1462M163.896 46.6009C164.361 46.871 165.052 46.5476 165.439 45.8788L163.896 46.6009ZM130.199 27.1462L130.638 26.3869L129.816 26.4662C129.846 26.7745 129.983 27.0181 130.199 27.1462ZM130.81 26.3441L139.976 31.6358L140.842 32.1358L140.342 33.0019L124.776 59.962C124.681 60.1263 124.656 60.2703 124.658 60.3549L137.942 68.0249C138.016 67.9839 138.129 67.8901 138.223 67.7258L153.789 40.7657L154.289 39.8997L155.155 40.3997L164.293 45.6757C164.367 45.6348 164.479 45.5414 164.574 45.3777L130.81 26.3441ZM130.81 26.3441C130.808 26.255 130.836 26.1142 130.924 25.9592C131.019 25.7907 131.139 25.687 131.223 25.6451L161.836 11.2072L164.692 44.9598L164.692 44.9609C164.699 45.0448 164.675 45.2032 164.574 45.3776L130.81 26.3441ZM164.398 45.7362L164.396 45.7348C164.397 45.7353 164.397 45.7357 164.398 45.7362ZM137.891 68.0477C137.891 68.0477 137.891 68.0475 137.893 68.0472C137.891 68.0476 137.891 68.0477 137.891 68.0477ZM124.664 60.411C124.664 60.411 124.664 60.4105 124.663 60.4092C124.664 60.4104 124.664 60.4111 124.664 60.411ZM161.967 10.9581L161.613 10.2068L161.967 10.9581Z" stroke="white" stroke-width="2"/>
<path d="M60.1615 438.266L51.7868 433.431L50.9207 432.931L50.4207 433.797L35.3553 459.891C34.9688 460.561 34.278 460.885 33.8122 460.616L20.3195 452.826C19.8537 452.558 19.7895 451.797 20.1759 451.128L35.2414 425.033L35.7414 424.167L34.8753 423.667L26.4651 418.812M60.1615 438.266L27.0773 418.036C27.0806 418.07 27.087 418.07 27.0748 418.048C27.0728 418.045 27.0704 418.041 27.0676 418.037L26.916 418.051L26.4651 418.812M60.1615 438.266C60.6266 438.537 61.3176 438.213 61.7049 437.544L60.1615 438.266ZM26.4651 418.812L26.9036 418.052L26.0819 418.132C26.1117 418.44 26.249 418.684 26.4651 418.812ZM27.0758 418.01L36.2414 423.301L37.1074 423.801L36.6074 424.667L21.0419 451.628C20.9471 451.792 20.922 451.936 20.9235 452.02L34.2082 459.69C34.2823 459.649 34.3944 459.556 34.4893 459.391L50.0547 432.431L50.5547 431.565L51.4207 432.065L60.5591 437.341C60.6329 437.3 60.7446 437.207 60.8395 437.043L27.0758 418.01ZM27.0758 418.01C27.0742 417.921 27.1023 417.78 27.1899 417.625C27.2852 417.456 27.405 417.352 27.4891 417.311L58.1017 402.873L60.9573 436.625L60.9574 436.626C60.9646 436.71 60.9405 436.869 60.8395 437.043L27.0758 418.01ZM60.6639 437.402L60.6615 437.4C60.6623 437.401 60.6631 437.401 60.6639 437.402ZM34.1566 459.713C34.1566 459.713 34.1572 459.713 34.1584 459.713C34.1572 459.713 34.1566 459.713 34.1566 459.713ZM20.9295 452.077C20.9295 452.077 20.9293 452.076 20.929 452.075C20.9294 452.076 20.9296 452.077 20.9295 452.077ZM58.2328 402.624L57.8785 401.872L58.2328 402.624Z" stroke="white" stroke-width="2"/>
<path d="M82.1615 291.266L73.7868 286.431L72.9207 285.931L72.4207 286.797L57.3553 312.891C56.9688 313.561 56.278 313.885 55.8122 313.616L42.3195 305.826C41.8537 305.558 41.7895 304.797 42.1759 304.128L57.2414 278.033L57.7414 277.167L56.8753 276.667L48.4651 271.812M82.1615 291.266L49.0773 271.036C49.0806 271.07 49.087 271.07 49.0748 271.048C49.0728 271.045 49.0704 271.041 49.0676 271.037L48.916 271.051L48.4651 271.812M82.1615 291.266C82.6266 291.537 83.3176 291.213 83.7049 290.544L82.1615 291.266ZM48.4651 271.812L48.9036 271.052L48.0819 271.132C48.1117 271.44 48.249 271.684 48.4651 271.812ZM49.0758 271.01L58.2414 276.301L59.1074 276.801L58.6074 277.667L43.0419 304.628C42.9471 304.792 42.922 304.936 42.9235 305.02L56.2082 312.69C56.2823 312.649 56.3944 312.556 56.4893 312.391L72.0547 285.431L72.5547 284.565L73.4207 285.065L82.5591 290.341C82.6329 290.3 82.7446 290.207 82.8395 290.043L49.0758 271.01ZM49.0758 271.01C49.0742 270.921 49.1023 270.78 49.1899 270.625C49.2852 270.456 49.405 270.352 49.4891 270.311L80.1017 255.873L82.9573 289.625L82.9574 289.626C82.9646 289.71 82.9405 289.869 82.8395 290.043L49.0758 271.01ZM82.6639 290.402L82.6615 290.4C82.6623 290.401 82.6631 290.401 82.6639 290.402ZM56.1566 312.713C56.1566 312.713 56.1572 312.713 56.1584 312.713C56.1572 312.713 56.1566 312.713 56.1566 312.713ZM42.9295 305.077C42.9295 305.077 42.9293 305.076 42.929 305.075C42.9294 305.076 42.9296 305.077 42.9295 305.077ZM80.2328 255.624L79.8785 254.872L80.2328 255.624Z" stroke="white" stroke-width="2"/>
<path d="M212.162 412.266L203.787 407.431L202.921 406.931L202.421 407.797L187.355 433.891C186.969 434.561 186.278 434.885 185.812 434.616L172.319 426.826C171.854 426.558 171.789 425.797 172.176 425.128L187.241 399.033L187.741 398.167L186.875 397.667L178.465 392.812M212.162 412.266L179.077 392.036C179.081 392.07 179.087 392.07 179.075 392.048C179.073 392.045 179.07 392.041 179.068 392.037L178.916 392.051L178.465 392.812M212.162 412.266C212.627 412.537 213.318 412.213 213.705 411.544L212.162 412.266ZM178.465 392.812L178.904 392.052L178.082 392.132C178.112 392.44 178.249 392.684 178.465 392.812ZM179.076 392.01L188.241 397.301L189.107 397.801L188.607 398.667L173.042 425.628C172.947 425.792 172.922 425.936 172.923 426.02L186.208 433.69C186.282 433.649 186.394 433.556 186.489 433.391L202.055 406.431L202.555 405.565L203.421 406.065L212.559 411.341C212.633 411.3 212.745 411.207 212.839 411.043L179.076 392.01ZM179.076 392.01C179.074 391.921 179.102 391.78 179.19 391.625C179.285 391.456 179.405 391.352 179.489 391.311L210.102 376.873L212.957 410.625L212.957 410.626C212.965 410.71 212.94 410.869 212.839 411.043L179.076 392.01ZM212.664 411.402L212.662 411.4C212.662 411.401 212.663 411.401 212.664 411.402ZM186.157 433.713C186.157 433.713 186.157 433.713 186.158 433.713C186.157 433.713 186.157 433.713 186.157 433.713ZM172.93 426.077C172.93 426.077 172.929 426.076 172.929 426.075C172.929 426.076 172.93 426.077 172.93 426.077ZM210.233 376.624L209.878 375.872L210.233 376.624Z" stroke="white" stroke-width="2"/>
<path d="M234.162 250.266L225.787 245.431L224.921 244.931L224.421 245.797L209.355 271.891C208.969 272.561 208.278 272.885 207.812 272.616L194.319 264.826C193.854 264.558 193.789 263.797 194.176 263.128L209.241 237.033L209.741 236.167L208.875 235.667L200.465 230.812M234.162 250.266L201.077 230.036C201.081 230.07 201.087 230.07 201.075 230.048C201.073 230.045 201.07 230.041 201.068 230.037L200.916 230.051L200.465 230.812M234.162 250.266C234.627 250.537 235.318 250.213 235.705 249.544L234.162 250.266ZM200.465 230.812L200.904 230.052L200.082 230.132C200.112 230.44 200.249 230.684 200.465 230.812ZM201.076 230.01L210.241 235.301L211.107 235.801L210.607 236.667L195.042 263.628C194.947 263.792 194.922 263.936 194.923 264.02L208.208 271.69C208.282 271.649 208.394 271.556 208.489 271.391L224.055 244.431L224.555 243.565L225.421 244.065L234.559 249.341C234.633 249.3 234.745 249.207 234.839 249.043L201.076 230.01ZM201.076 230.01C201.074 229.921 201.102 229.78 201.19 229.625C201.285 229.456 201.405 229.352 201.489 229.311L232.102 214.873L234.957 248.625L234.957 248.626C234.965 248.71 234.94 248.869 234.839 249.043L201.076 230.01ZM234.664 249.402L234.662 249.4C234.662 249.401 234.663 249.401 234.664 249.402ZM208.157 271.713C208.157 271.713 208.157 271.713 208.158 271.713C208.157 271.713 208.157 271.713 208.157 271.713ZM194.93 264.077C194.93 264.077 194.929 264.076 194.929 264.075C194.929 264.076 194.93 264.077 194.93 264.077ZM232.233 214.624L231.878 213.872L232.233 214.624Z" stroke="white" stroke-width="2"/>
<path d="M116.162 130.266L107.787 125.431L106.921 124.931L106.421 125.797L91.3553 151.891C90.9688 152.561 90.2779 152.885 89.8122 152.616L76.3195 144.826C75.8537 144.558 75.7894 143.797 76.1759 143.128L91.2413 117.033L91.7413 116.167L90.8753 115.667L82.4651 110.812M116.162 130.266L83.0773 110.036C83.0806 110.07 83.087 110.07 83.0748 110.048C83.0728 110.045 83.0704 110.041 83.0675 110.037L82.916 110.051L82.4651 110.812M116.162 130.266C116.627 130.537 117.318 130.213 117.705 129.544L116.162 130.266ZM82.4651 110.812L82.9035 110.052L82.0819 110.132C82.1117 110.44 82.249 110.684 82.4651 110.812ZM83.0758 110.01L92.2413 115.301L93.1074 115.801L92.6074 116.667L77.0419 143.628C76.9471 143.792 76.9219 143.936 76.9234 144.02L90.2082 151.69C90.2823 151.649 90.3944 151.556 90.4892 151.391L106.055 124.431L106.555 123.565L107.421 124.065L116.559 129.341C116.633 129.3 116.745 129.207 116.839 129.043L83.0758 110.01ZM83.0758 110.01C83.0741 109.921 83.1022 109.78 83.1899 109.625C83.2852 109.456 83.4049 109.352 83.4891 109.311L114.102 94.8727L116.957 128.625L116.957 128.626C116.965 128.71 116.94 128.869 116.839 129.043L83.0758 110.01ZM116.664 129.402L116.662 129.4C116.662 129.401 116.663 129.401 116.664 129.402ZM90.1566 151.713C90.1565 151.713 90.1572 151.713 90.1584 151.713C90.1572 151.713 90.1566 151.713 90.1566 151.713ZM76.9295 144.077C76.9295 144.077 76.9293 144.076 76.929 144.075C76.9294 144.076 76.9295 144.077 76.9295 144.077ZM114.233 94.6236L113.878 93.8724L114.233 94.6236Z" stroke="white" stroke-width="2"/>
<path d="M35.7981 366.465L27.4233 361.63L26.5573 361.13L26.0573 361.996L10.9918 388.09C10.6054 388.759 9.9145 389.084 9.44877 388.815L-4.04398 381.025C-4.50971 380.756 -4.57399 379.996 -4.18755 379.326L10.8779 353.232L11.3779 352.366L10.5119 351.866L2.1017 347.01M35.7981 366.465L2.71383 346.234C2.71715 346.269 2.72355 346.269 2.71138 346.247C2.70936 346.243 2.70695 346.24 2.70411 346.235L2.55254 346.25L2.1017 347.01M35.7981 366.465C36.2631 366.735 36.9541 366.412 37.3414 365.743L35.7981 366.465ZM2.1017 347.01L2.54011 346.251L1.71846 346.33C1.74827 346.639 1.88557 346.882 2.1017 347.01ZM2.71238 346.208L11.8779 351.5L12.7439 352L12.2439 352.866L-3.32152 379.826C-3.41636 379.991 -3.44149 380.135 -3.43999 380.219L9.84478 387.889C9.91886 387.848 10.031 387.754 10.1258 387.59L25.6913 360.63L26.1913 359.764L27.0573 360.264L36.1956 365.54C36.2694 365.499 36.3812 365.406 36.476 365.242L2.71238 346.208ZM2.71238 346.208C2.7107 346.119 2.73881 345.978 2.82647 345.823C2.92178 345.655 3.04151 345.551 3.12566 345.509L33.7383 331.071L36.5939 364.824L36.594 364.825C36.6012 364.909 36.577 365.067 36.4761 365.242L2.71238 346.208ZM36.3004 365.6L36.2981 365.599C36.2989 365.6 36.2996 365.6 36.3004 365.6ZM9.79315 387.912C9.7931 387.912 9.79373 387.912 9.795 387.911C9.7938 387.912 9.79319 387.912 9.79315 387.912ZM-3.43392 380.275C-3.43395 380.275 -3.43414 380.275 -3.43444 380.273C-3.43405 380.275 -3.43389 380.275 -3.43392 380.275ZM33.8693 330.822L33.515 330.071L33.8693 330.822Z" stroke="white" stroke-width="2"/>
<path d="M57.7981 219.465L49.4233 214.63L48.5573 214.13L48.0573 214.996L32.9918 241.09C32.6054 241.759 31.9145 242.084 31.4488 241.815L17.956 234.025C17.4903 233.756 17.426 232.996 17.8125 232.326L32.8779 206.232L33.3779 205.366L32.5119 204.866L24.1017 200.01M57.7981 219.465L24.7138 199.234C24.7171 199.269 24.7235 199.269 24.7114 199.247C24.7094 199.243 24.7069 199.24 24.7041 199.235L24.5525 199.25L24.1017 200.01M57.7981 219.465C58.2631 219.735 58.9541 219.412 59.3414 218.743L57.7981 219.465ZM24.1017 200.01L24.5401 199.251L23.7185 199.33C23.7483 199.639 23.8856 199.882 24.1017 200.01ZM24.7124 199.208L33.8779 204.5L34.7439 205L34.2439 205.866L18.6785 232.826C18.5836 232.991 18.5585 233.135 18.56 233.219L31.8448 240.889C31.9189 240.848 32.031 240.754 32.1258 240.59L47.6913 213.63L48.1913 212.764L49.0573 213.264L58.1956 218.54C58.2694 218.499 58.3812 218.406 58.476 218.242L24.7124 199.208ZM24.7124 199.208C24.7107 199.119 24.7388 198.978 24.8265 198.823C24.9218 198.655 25.0415 198.551 25.1257 198.509L55.7383 184.071L58.5939 217.824L58.594 217.825C58.6012 217.909 58.577 218.067 58.4761 218.242L24.7124 199.208ZM58.3004 218.6L58.2981 218.599C58.2989 218.6 58.2996 218.6 58.3004 218.6ZM31.7931 240.912C31.7931 240.912 31.7937 240.912 31.795 240.911C31.7938 240.912 31.7932 240.912 31.7931 240.912ZM18.5661 233.275C18.5661 233.275 18.5659 233.275 18.5656 233.273C18.566 233.275 18.5661 233.275 18.5661 233.275ZM55.8693 183.822L55.515 183.071L55.8693 183.822Z" stroke="white" stroke-width="2"/>
<path d="M187.798 340.465L179.423 335.63L178.557 335.13L178.057 335.996L162.992 362.09C162.605 362.759 161.915 363.084 161.449 362.815L147.956 355.025C147.49 354.756 147.426 353.996 147.812 353.326L162.878 327.232L163.378 326.366L162.512 325.866L154.102 321.01M187.798 340.465L154.714 320.234C154.717 320.269 154.724 320.269 154.711 320.247C154.709 320.243 154.707 320.24 154.704 320.235L154.553 320.25L154.102 321.01M187.798 340.465C188.263 340.735 188.954 340.412 189.341 339.743L187.798 340.465ZM154.102 321.01L154.54 320.251L153.718 320.33C153.748 320.639 153.886 320.882 154.102 321.01ZM154.712 320.208L163.878 325.5L164.744 326L164.244 326.866L148.678 353.826C148.584 353.991 148.559 354.135 148.56 354.219L161.845 361.889C161.919 361.848 162.031 361.754 162.126 361.59L177.691 334.63L178.191 333.764L179.057 334.264L188.196 339.54C188.269 339.499 188.381 339.406 188.476 339.242L154.712 320.208ZM154.712 320.208C154.711 320.119 154.739 319.978 154.826 319.823C154.922 319.655 155.042 319.551 155.126 319.509L185.738 305.071L188.594 338.824L188.594 338.825C188.601 338.909 188.577 339.067 188.476 339.242L154.712 320.208ZM188.3 339.6L188.298 339.599C188.299 339.6 188.3 339.6 188.3 339.6ZM161.793 361.912C161.793 361.912 161.794 361.912 161.795 361.911C161.794 361.912 161.793 361.912 161.793 361.912ZM148.566 354.275C148.566 354.275 148.566 354.275 148.566 354.273C148.566 354.275 148.566 354.275 148.566 354.275ZM185.869 304.822L185.515 304.071L185.869 304.822Z" stroke="white" stroke-width="2"/>
<path d="M209.798 178.465L201.423 173.63L200.557 173.13L200.057 173.996L184.992 200.09C184.605 200.759 183.915 201.084 183.449 200.815L169.956 193.025C169.49 192.756 169.426 191.996 169.812 191.326L184.878 165.232L185.378 164.366L184.512 163.866L176.102 159.01M209.798 178.465L176.714 158.234C176.717 158.269 176.724 158.269 176.711 158.247C176.709 158.243 176.707 158.24 176.704 158.235L176.553 158.25L176.102 159.01M209.798 178.465C210.263 178.735 210.954 178.412 211.341 177.743L209.798 178.465ZM176.102 159.01L176.54 158.251L175.718 158.33C175.748 158.639 175.886 158.882 176.102 159.01ZM176.712 158.208L185.878 163.5L186.744 164L186.244 164.866L170.678 191.826C170.584 191.991 170.559 192.135 170.56 192.219L183.845 199.889C183.919 199.848 184.031 199.754 184.126 199.59L199.691 172.63L200.191 171.764L201.057 172.264L210.196 177.54C210.269 177.499 210.381 177.406 210.476 177.242L176.712 158.208ZM176.712 158.208C176.711 158.119 176.739 157.978 176.826 157.823C176.922 157.655 177.042 157.551 177.126 157.509L207.738 143.071L210.594 176.824L210.594 176.825C210.601 176.909 210.577 177.067 210.476 177.242L176.712 158.208ZM210.3 177.6L210.298 177.599C210.299 177.6 210.3 177.6 210.3 177.6ZM183.793 199.912C183.793 199.912 183.794 199.912 183.795 199.911C183.794 199.912 183.793 199.912 183.793 199.912ZM170.566 192.275C170.566 192.275 170.566 192.275 170.566 192.273C170.566 192.275 170.566 192.275 170.566 192.275ZM207.869 142.822L207.515 142.071L207.869 142.822Z" stroke="white" stroke-width="2"/>
<path d="M91.7981 58.4651L83.4233 53.6299L82.5573 53.1299L82.0573 53.996L66.9918 80.0901C66.6054 80.7595 65.9145 81.0841 65.4488 80.8152L51.956 73.0252C51.4903 72.7563 51.426 71.9956 51.8125 71.3263L66.8779 45.2321L67.3779 44.3661L66.5119 43.8661L58.1017 39.0105M91.7981 58.4651L58.7138 38.2343C58.7171 38.2685 58.7235 38.2686 58.7114 38.2471C58.7094 38.2435 58.7069 38.2395 58.7041 38.2353L58.5525 38.2499L58.1017 39.0105M91.7981 58.4651C92.2631 58.7353 92.9541 58.4119 93.3414 57.743L91.7981 58.4651ZM58.1017 39.0105L58.5401 38.2511L57.7185 38.3305C57.7483 38.6387 57.8856 38.8824 58.1017 39.0105ZM58.7124 38.2084L67.8779 43.5001L68.7439 44.0001L68.2439 44.8661L52.6785 71.8263C52.5836 71.9905 52.5585 72.1345 52.56 72.2192L65.8448 79.8892C65.9189 79.8481 66.031 79.7544 66.1258 79.5901L81.6913 52.6299L82.1913 51.7639L83.0573 52.2639L92.1956 57.5399C92.2694 57.499 92.3812 57.4057 92.476 57.242L58.7124 38.2084ZM58.7124 38.2084C58.7107 38.1193 58.7388 37.9784 58.8265 37.8234C58.9218 37.6549 59.0415 37.5512 59.1257 37.5093L89.7383 23.0714L92.5939 56.824L92.594 56.8251C92.6012 56.9091 92.577 57.0674 92.4761 57.2419L58.7124 38.2084ZM92.3004 57.6004L92.2981 57.5991C92.2989 57.5995 92.2996 57.6 92.3004 57.6004ZM65.7931 79.912C65.7931 79.9119 65.7937 79.9118 65.795 79.9115C65.7938 79.9118 65.7932 79.912 65.7931 79.912ZM52.5661 72.2753C52.5661 72.2753 52.5659 72.2747 52.5656 72.2735C52.566 72.2747 52.5661 72.2753 52.5661 72.2753ZM89.8693 22.8224L89.515 22.0711L89.8693 22.8224Z" stroke="white" stroke-width="2"/>
<path d="M136.659 417.769L128.284 412.934L127.418 412.434L126.918 413.3L111.853 439.394C111.466 440.064 110.775 440.388 110.31 440.119L96.8169 432.329C96.3512 432.06 96.2869 431.3 96.6733 430.63L111.739 404.536L112.239 403.67L111.373 403.17L102.963 398.315M136.659 417.769L103.575 397.539C103.578 397.573 103.584 397.573 103.572 397.551C103.57 397.548 103.568 397.544 103.565 397.539L103.413 397.554L102.963 398.315M136.659 417.769C137.124 418.039 137.815 417.716 138.202 417.047L136.659 417.769ZM102.963 398.315L103.401 397.555L102.579 397.635C102.609 397.943 102.746 398.187 102.963 398.315ZM103.573 397.513L112.739 402.804L113.605 403.304L113.105 404.17L97.5394 431.13C97.4445 431.295 97.4194 431.439 97.4209 431.523L110.706 439.193C110.78 439.152 110.892 439.059 110.987 438.894L126.552 411.934L127.052 411.068L127.918 411.568L137.056 416.844C137.13 416.803 137.242 416.71 137.337 416.546L103.573 397.513ZM103.573 397.513C103.572 397.423 103.6 397.283 103.687 397.128C103.783 396.959 103.902 396.855 103.987 396.814L134.599 382.376L137.455 416.128L137.455 416.129C137.462 416.213 137.438 416.372 137.337 416.546L103.573 397.513ZM137.161 416.905L137.159 416.903C137.16 416.904 137.161 416.904 137.161 416.905ZM110.654 439.216C110.654 439.216 110.655 439.216 110.656 439.216C110.655 439.216 110.654 439.216 110.654 439.216ZM97.427 431.58C97.4269 431.579 97.4268 431.579 97.4264 431.578C97.4268 431.579 97.427 431.58 97.427 431.58ZM134.73 382.127L134.376 381.375L134.73 382.127Z" stroke="white" stroke-width="2"/>
<path d="M158.659 270.769L150.284 265.934L149.418 265.434L148.918 266.3L133.853 292.394C133.466 293.064 132.775 293.388 132.31 293.119L118.817 285.329C118.351 285.06 118.287 284.3 118.673 283.63L133.739 257.536L134.239 256.67L133.373 256.17L124.963 251.315M158.659 270.769L125.575 250.539C125.578 250.573 125.584 250.573 125.572 250.551C125.57 250.548 125.568 250.544 125.565 250.539L125.413 250.554L124.963 251.315M158.659 270.769C159.124 271.039 159.815 270.716 160.202 270.047L158.659 270.769ZM124.963 251.315L125.401 250.555L124.579 250.635C124.609 250.943 124.746 251.187 124.963 251.315ZM125.573 250.513L134.739 255.804L135.605 256.304L135.105 257.17L119.539 284.13C119.445 284.295 119.419 284.439 119.421 284.523L132.706 292.193C132.78 292.152 132.892 292.059 132.987 291.894L148.552 264.934L149.052 264.068L149.918 264.568L159.056 269.844C159.13 269.803 159.242 269.71 159.337 269.546L125.573 250.513ZM125.573 250.513C125.572 250.423 125.6 250.283 125.687 250.128C125.783 249.959 125.902 249.855 125.987 249.814L156.599 235.376L159.455 269.128L159.455 269.129C159.462 269.213 159.438 269.372 159.337 269.546L125.573 250.513ZM159.161 269.905L159.159 269.903C159.16 269.904 159.161 269.904 159.161 269.905ZM132.654 292.216C132.654 292.216 132.655 292.216 132.656 292.216C132.655 292.216 132.654 292.216 132.654 292.216ZM119.427 284.58C119.427 284.579 119.427 284.579 119.426 284.578C119.427 284.579 119.427 284.58 119.427 284.58ZM156.73 235.127L156.376 234.375L156.73 235.127Z" stroke="white" stroke-width="2"/>
<path d="M288.659 391.769L280.284 386.934L279.418 386.434L278.918 387.3L263.853 413.394C263.466 414.064 262.775 414.388 262.31 414.119L248.817 406.329C248.351 406.06 248.287 405.3 248.673 404.63L263.739 378.536L264.239 377.67L263.373 377.17L254.963 372.315M288.659 391.769L255.575 371.539C255.578 371.573 255.584 371.573 255.572 371.551C255.57 371.548 255.568 371.544 255.565 371.539L255.413 371.554L254.963 372.315M288.659 391.769C289.124 392.039 289.815 391.716 290.202 391.047L288.659 391.769ZM254.963 372.315L255.401 371.555L254.579 371.635C254.609 371.943 254.746 372.187 254.963 372.315ZM255.573 371.513L264.739 376.804L265.605 377.304L265.105 378.17L249.539 405.13C249.445 405.295 249.419 405.439 249.421 405.523L262.706 413.193C262.78 413.152 262.892 413.059 262.987 412.894L278.552 385.934L279.052 385.068L279.918 385.568L289.056 390.844C289.13 390.803 289.242 390.71 289.337 390.546L255.573 371.513ZM255.573 371.513C255.572 371.423 255.6 371.283 255.687 371.128C255.783 370.959 255.902 370.855 255.987 370.814L286.599 356.376L289.455 390.128L289.455 390.129C289.462 390.213 289.438 390.372 289.337 390.546L255.573 371.513ZM289.161 390.905L289.159 390.903C289.16 390.904 289.161 390.904 289.161 390.905ZM262.654 413.216C262.654 413.216 262.655 413.216 262.656 413.216C262.655 413.216 262.654 413.216 262.654 413.216ZM249.427 405.58C249.427 405.579 249.427 405.579 249.426 405.578C249.427 405.579 249.427 405.58 249.427 405.58ZM286.73 356.127L286.376 355.375L286.73 356.127Z" stroke="white" stroke-width="2"/>
<path d="M310.659 229.769L302.284 224.934L301.418 224.434L300.918 225.3L285.853 251.394C285.466 252.064 284.775 252.388 284.31 252.119L270.817 244.329C270.351 244.06 270.287 243.3 270.673 242.63L285.739 216.536L286.239 215.67L285.373 215.17L276.963 210.315M310.659 229.769L277.575 209.539C277.578 209.573 277.584 209.573 277.572 209.551C277.57 209.548 277.568 209.544 277.565 209.539L277.413 209.554L276.963 210.315M310.659 229.769C311.124 230.039 311.815 229.716 312.202 229.047L310.659 229.769ZM276.963 210.315L277.401 209.555L276.579 209.635C276.609 209.943 276.746 210.187 276.963 210.315ZM277.573 209.513L286.739 214.804L287.605 215.304L287.105 216.17L271.539 243.13C271.445 243.295 271.419 243.439 271.421 243.523L284.706 251.193C284.78 251.152 284.892 251.059 284.987 250.894L300.552 223.934L301.052 223.068L301.918 223.568L311.056 228.844C311.13 228.803 311.242 228.71 311.337 228.546L277.573 209.513ZM277.573 209.513C277.572 209.423 277.6 209.283 277.687 209.128C277.783 208.959 277.902 208.855 277.987 208.814L308.599 194.376L311.455 228.128L311.455 228.129C311.462 228.213 311.438 228.372 311.337 228.546L277.573 209.513ZM311.161 228.905L311.159 228.903C311.16 228.904 311.161 228.904 311.161 228.905ZM284.654 251.216C284.654 251.216 284.655 251.216 284.656 251.216C284.655 251.216 284.654 251.216 284.654 251.216ZM271.427 243.58C271.427 243.579 271.427 243.579 271.426 243.578C271.427 243.579 271.427 243.58 271.427 243.58ZM308.73 194.127L308.376 193.375L308.73 194.127Z" stroke="white" stroke-width="2"/>
<path d="M375.798 203.601L367.423 198.766L366.557 198.266L366.057 199.132L350.992 225.226C350.605 225.895 349.915 226.22 349.449 225.951L335.956 218.161C335.49 217.892 335.426 217.131 335.812 216.462L350.878 190.368L351.378 189.502L350.512 189.002L342.102 184.146M375.798 203.601L342.714 183.37C342.717 183.404 342.724 183.404 342.711 183.383C342.709 183.379 342.707 183.375 342.704 183.371L342.553 183.386L342.102 184.146M375.798 203.601C376.263 203.871 376.954 203.548 377.341 202.879L375.798 203.601ZM342.102 184.146L342.54 183.387L341.718 183.466C341.748 183.774 341.886 184.018 342.102 184.146ZM342.712 183.344L351.878 188.636L352.744 189.136L352.244 190.002L336.678 216.962C336.584 217.126 336.559 217.27 336.56 217.355L349.845 225.025C349.919 224.984 350.031 224.89 350.126 224.726L365.691 197.766L366.191 196.9L367.057 197.4L376.196 202.676C376.269 202.635 376.381 202.541 376.476 202.378L342.712 183.344ZM342.712 183.344C342.711 183.255 342.739 183.114 342.826 182.959C342.922 182.791 343.042 182.687 343.126 182.645L373.738 168.207L376.594 201.96L376.594 201.961C376.601 202.045 376.577 202.203 376.476 202.378L342.712 183.344ZM376.3 202.736L376.298 202.735C376.299 202.735 376.3 202.736 376.3 202.736ZM349.793 225.048C349.793 225.048 349.794 225.047 349.795 225.047C349.794 225.048 349.793 225.048 349.793 225.048ZM336.566 217.411C336.566 217.411 336.566 217.41 336.566 217.409C336.566 217.41 336.566 217.411 336.566 217.411ZM373.869 167.958L373.515 167.207L373.869 167.958Z" stroke="white" stroke-width="2"/>
<path d="M357.798 133.601L349.423 128.766L348.557 128.266L348.057 129.132L332.992 155.226C332.605 155.895 331.915 156.22 331.449 155.951L317.956 148.161C317.49 147.892 317.426 147.131 317.812 146.462L332.878 120.368L333.378 119.502L332.512 119.002L324.102 114.146M357.798 133.601L324.714 113.37C324.717 113.404 324.724 113.404 324.711 113.383C324.709 113.379 324.707 113.375 324.704 113.371L324.553 113.386L324.102 114.146M357.798 133.601C358.263 133.871 358.954 133.548 359.341 132.879L357.798 133.601ZM324.102 114.146L324.54 113.387L323.718 113.466C323.748 113.774 323.886 114.018 324.102 114.146ZM324.712 113.344L333.878 118.636L334.744 119.136L334.244 120.002L318.678 146.962C318.584 147.126 318.559 147.27 318.56 147.355L331.845 155.025C331.919 154.984 332.031 154.89 332.126 154.726L347.691 127.766L348.191 126.9L349.057 127.4L358.196 132.676C358.269 132.635 358.381 132.541 358.476 132.378L324.712 113.344ZM324.712 113.344C324.711 113.255 324.739 113.114 324.826 112.959C324.922 112.791 325.042 112.687 325.126 112.645L355.738 98.2072L358.594 131.96L358.594 131.961C358.601 132.045 358.577 132.203 358.476 132.378L324.712 113.344ZM358.3 132.736L358.298 132.735C358.299 132.735 358.3 132.736 358.3 132.736ZM331.793 155.048C331.793 155.048 331.794 155.047 331.795 155.047C331.794 155.048 331.793 155.048 331.793 155.048ZM318.566 147.411C318.566 147.411 318.566 147.41 318.566 147.409C318.566 147.41 318.566 147.411 318.566 147.411ZM355.869 97.9581L355.515 97.2068L355.869 97.9581Z" stroke="white" stroke-width="2"/>
<path d="M334.798 299.601L326.423 294.766L325.557 294.266L325.057 295.132L309.992 321.226C309.605 321.895 308.915 322.22 308.449 321.951L294.956 314.161C294.49 313.892 294.426 313.131 294.812 312.462L309.878 286.368L310.378 285.502L309.512 285.002L301.102 280.146M334.798 299.601L301.714 279.37C301.717 279.404 301.724 279.404 301.711 279.383C301.709 279.379 301.707 279.375 301.704 279.371L301.553 279.386L301.102 280.146M334.798 299.601C335.263 299.871 335.954 299.548 336.341 298.879L334.798 299.601ZM301.102 280.146L301.54 279.387L300.718 279.466C300.748 279.774 300.886 280.018 301.102 280.146ZM301.712 279.344L310.878 284.636L311.744 285.136L311.244 286.002L295.678 312.962C295.584 313.126 295.559 313.27 295.56 313.355L308.845 321.025C308.919 320.984 309.031 320.89 309.126 320.726L324.691 293.766L325.191 292.9L326.057 293.4L335.196 298.676C335.269 298.635 335.381 298.541 335.476 298.378L301.712 279.344ZM301.712 279.344C301.711 279.255 301.739 279.114 301.826 278.959C301.922 278.791 302.042 278.687 302.126 278.645L332.738 264.207L335.594 297.96L335.594 297.961C335.601 298.045 335.577 298.203 335.476 298.378L301.712 279.344ZM335.3 298.736L335.298 298.735C335.299 298.735 335.3 298.736 335.3 298.736ZM308.793 321.048C308.793 321.048 308.794 321.047 308.795 321.047C308.794 321.048 308.793 321.048 308.793 321.048ZM295.566 313.411C295.566 313.411 295.566 313.41 295.566 313.409C295.566 313.41 295.566 313.411 295.566 313.411ZM332.869 263.958L332.515 263.207L332.869 263.958Z" stroke="white" stroke-width="2"/>
<path d="M355.798 374.601L347.423 369.766L346.557 369.266L346.057 370.132L330.992 396.226C330.605 396.895 329.915 397.22 329.449 396.951L315.956 389.161C315.49 388.892 315.426 388.131 315.812 387.462L330.878 361.368L331.378 360.502L330.512 360.002L322.102 355.146M355.798 374.601L322.714 354.37C322.717 354.404 322.724 354.404 322.711 354.383C322.709 354.379 322.707 354.375 322.704 354.371L322.553 354.386L322.102 355.146M355.798 374.601C356.263 374.871 356.954 374.548 357.341 373.879L355.798 374.601ZM322.102 355.146L322.54 354.387L321.718 354.466C321.748 354.774 321.886 355.018 322.102 355.146ZM322.712 354.344L331.878 359.636L332.744 360.136L332.244 361.002L316.678 387.962C316.584 388.126 316.559 388.27 316.56 388.355L329.845 396.025C329.919 395.984 330.031 395.89 330.126 395.726L345.691 368.766L346.191 367.9L347.057 368.4L356.196 373.676C356.269 373.635 356.381 373.541 356.476 373.378L322.712 354.344ZM322.712 354.344C322.711 354.255 322.739 354.114 322.826 353.959C322.922 353.791 323.042 353.687 323.126 353.645L353.738 339.207L356.594 372.96L356.594 372.961C356.601 373.045 356.577 373.203 356.476 373.378L322.712 354.344ZM356.3 373.736L356.298 373.735C356.299 373.735 356.3 373.736 356.3 373.736ZM329.793 396.048C329.793 396.048 329.794 396.047 329.795 396.047C329.794 396.048 329.793 396.048 329.793 396.048ZM316.566 388.411C316.566 388.411 316.566 388.41 316.566 388.409C316.566 388.41 316.566 388.411 316.566 388.411ZM353.869 338.958L353.515 338.207L353.869 338.958Z" stroke="white" stroke-width="2"/>
<path d="M326.798 461.601L318.423 456.766L317.557 456.266L317.057 457.132L301.992 483.226C301.605 483.895 300.915 484.22 300.449 483.951L286.956 476.161C286.49 475.892 286.426 475.131 286.812 474.462L301.878 448.368L302.378 447.502L301.512 447.002L293.102 442.146M326.798 461.601L293.714 441.37C293.717 441.404 293.724 441.404 293.711 441.383C293.709 441.379 293.707 441.375 293.704 441.371L293.553 441.386L293.102 442.146M326.798 461.601C327.263 461.871 327.954 461.548 328.341 460.879L326.798 461.601ZM293.102 442.146L293.54 441.387L292.718 441.466C292.748 441.774 292.886 442.018 293.102 442.146ZM293.712 441.344L302.878 446.636L303.744 447.136L303.244 448.002L287.678 474.962C287.584 475.126 287.559 475.27 287.56 475.355L300.845 483.025C300.919 482.984 301.031 482.89 301.126 482.726L316.691 455.766L317.191 454.9L318.057 455.4L327.196 460.676C327.269 460.635 327.381 460.541 327.476 460.378L293.712 441.344ZM293.712 441.344C293.711 441.255 293.739 441.114 293.826 440.959C293.922 440.791 294.042 440.687 294.126 440.645L324.738 426.207L327.594 459.96L327.594 459.961C327.601 460.045 327.577 460.203 327.476 460.378L293.712 441.344ZM327.3 460.736L327.298 460.735C327.299 460.735 327.3 460.736 327.3 460.736ZM300.793 483.048C300.793 483.048 300.794 483.047 300.795 483.047C300.794 483.048 300.793 483.048 300.793 483.048ZM287.566 475.411C287.566 475.411 287.566 475.41 287.566 475.409C287.566 475.41 287.566 475.411 287.566 475.411ZM324.869 425.958L324.515 425.207L324.869 425.958Z" stroke="white" stroke-width="2"/>
<path d="M192.659 109.769L184.284 104.934L183.418 104.434L182.918 105.3L167.853 131.394C167.466 132.064 166.775 132.388 166.31 132.119L152.817 124.329C152.351 124.06 152.287 123.3 152.673 122.63L167.739 96.5363L168.239 95.6703L167.373 95.1703L158.963 90.3147M192.659 109.769L159.575 89.5385C159.578 89.5727 159.584 89.5728 159.572 89.5513C159.57 89.5477 159.568 89.5437 159.565 89.5395L159.413 89.5541L158.963 90.3147M192.659 109.769C193.124 110.039 193.815 109.716 194.202 109.047L192.659 109.769ZM158.963 90.3147L159.401 89.5553L158.579 89.6347C158.609 89.9429 158.746 90.1866 158.963 90.3147ZM159.573 89.5126L168.739 94.8043L169.605 95.3043L169.105 96.1703L153.539 123.13C153.445 123.295 153.419 123.439 153.421 123.523L166.706 131.193C166.78 131.152 166.892 131.059 166.987 130.894L182.552 103.934L183.052 103.068L183.918 103.568L193.056 108.844C193.13 108.803 193.242 108.71 193.337 108.546L159.573 89.5126ZM159.573 89.5126C159.572 89.4235 159.6 89.2826 159.687 89.1276C159.783 88.9591 159.902 88.8554 159.987 88.8135L190.599 74.3756L193.455 108.128L193.455 108.129C193.462 108.213 193.438 108.372 193.337 108.546L159.573 89.5126ZM193.161 108.905L193.159 108.903C193.16 108.904 193.161 108.904 193.161 108.905ZM166.654 131.216C166.654 131.216 166.655 131.216 166.656 131.216C166.655 131.216 166.654 131.216 166.654 131.216ZM153.427 123.58C153.427 123.579 153.427 123.579 153.426 123.578C153.427 123.579 153.427 123.58 153.427 123.58ZM190.73 74.1266L190.376 73.3753L190.73 74.1266Z" stroke="white" stroke-width="2"/>
<path d="M9.89574 81.6009L1.52097 76.7657L0.65494 76.2657L0.15494 77.1317L-14.9105 103.226C-15.297 103.895 -15.9879 104.22 -16.4536 103.951L-29.9463 96.1609C-30.4121 95.892 -30.4764 95.1314 -30.0899 94.462L-15.0244 68.3679L-14.5244 67.5019L-15.3905 67.0019L-23.8007 62.1462M9.89574 81.6009L-23.1885 61.3701C-23.1852 61.4043 -23.1788 61.4044 -23.191 61.3828C-23.193 61.3792 -23.1954 61.3753 -23.1982 61.371L-23.3498 61.3857L-23.8007 62.1462M9.89574 81.6009C10.3608 81.871 11.0518 81.5476 11.4391 80.8788L9.89574 81.6009ZM-23.8007 62.1462L-23.3622 61.3869L-24.1839 61.4662C-24.1541 61.7745 -24.0168 62.0181 -23.8007 62.1462ZM-23.19 61.3441L-14.0244 66.6358L-13.1584 67.1358L-13.6584 68.0019L-29.2239 94.962C-29.3187 95.1263 -29.3438 95.2703 -29.3424 95.3549L-16.0576 103.025C-15.9835 102.984 -15.8714 102.89 -15.7765 102.726L-0.211085 75.7657L0.288915 74.8997L1.15494 75.3997L10.2933 80.6757C10.367 80.6348 10.4788 80.5414 10.5737 80.3777L-23.19 61.3441ZM-23.19 61.3441C-23.1917 61.255 -23.1635 61.1142 -23.0759 60.9592C-22.9806 60.7907 -22.8608 60.687 -22.7767 60.6451L7.8359 46.2072L10.6915 79.9598L10.6916 79.9609C10.6988 80.0448 10.6747 80.2032 10.5737 80.3776L-23.19 61.3441ZM10.3981 80.7362L10.3957 80.7348C10.3965 80.7353 10.3973 80.7357 10.3981 80.7362ZM-16.1092 103.048C-16.1093 103.048 -16.1086 103.047 -16.1074 103.047C-16.1086 103.048 -16.1092 103.048 -16.1092 103.048ZM-29.3363 95.411C-29.3363 95.411 -29.3365 95.4105 -29.3368 95.4092C-29.3364 95.4104 -29.3363 95.4111 -29.3363 95.411ZM7.96699 45.9581L7.61267 45.2068L7.96699 45.9581Z" stroke="white" stroke-width="2"/>
<path d="M6.79811 301.601L-1.57666 296.766L-2.44269 296.266L-2.94269 297.132L-18.0081 323.226C-18.3946 323.895 -19.0855 324.22 -19.5512 323.951L-33.044 316.161C-33.5097 315.892 -33.574 315.131 -33.1875 314.462L-18.1221 288.368L-17.6221 287.502L-18.4881 287.002L-26.8983 282.146M6.79811 301.601L-26.2862 281.37C-26.2828 281.404 -26.2764 281.404 -26.2886 281.383C-26.2906 281.379 -26.293 281.375 -26.2959 281.371L-26.4474 281.386L-26.8983 282.146M6.79811 301.601C7.26313 301.871 7.95413 301.548 8.34144 300.879L6.79811 301.601ZM-26.8983 282.146L-26.4599 281.387L-27.2815 281.466C-27.2517 281.774 -27.1144 282.018 -26.8983 282.146ZM-26.2876 281.344L-17.1221 286.636L-16.256 287.136L-16.756 288.002L-32.3215 314.962C-32.4163 315.126 -32.4415 315.27 -32.44 315.355L-19.1552 323.025C-19.0811 322.984 -18.969 322.89 -18.8742 322.726L-3.30871 295.766L-2.80871 294.9L-1.94269 295.4L7.19563 300.676C7.26942 300.635 7.38121 300.541 7.47603 300.378L-26.2876 281.344ZM-26.2876 281.344C-26.2893 281.255 -26.2612 281.114 -26.1735 280.959C-26.0782 280.791 -25.9585 280.687 -25.8743 280.645L4.73827 266.207L7.59388 299.96L7.59397 299.961C7.60117 300.045 7.57706 300.203 7.47607 300.378L-26.2876 281.344ZM7.30044 300.736L7.29811 300.735C7.29889 300.735 7.29966 300.736 7.30044 300.736ZM-19.2068 323.048C-19.2069 323.048 -19.2063 323.047 -19.205 323.047C-19.2062 323.048 -19.2068 323.048 -19.2068 323.048ZM-32.4339 315.411C-32.4339 315.411 -32.4341 315.41 -32.4344 315.409C-32.434 315.41 -32.4339 315.411 -32.4339 315.411ZM4.86936 265.958L4.51504 265.207L4.86936 265.958Z" stroke="white" stroke-width="2"/>
<path d="M38.659 144.769L30.2842 139.934L29.4182 139.434L28.9182 140.3L13.8527 166.394C13.4663 167.064 12.7754 167.388 12.3097 167.119L-1.18309 159.329C-1.64883 159.06 -1.71311 158.3 -1.32666 157.63L13.7388 131.536L14.2388 130.67L13.3728 130.17L4.96258 125.315M38.659 144.769L5.57471 124.539C5.57803 124.573 5.58443 124.573 5.57227 124.551C5.57025 124.548 5.56783 124.544 5.565 124.539L5.41343 124.554L4.96258 125.315M38.659 144.769C39.124 145.039 39.815 144.716 40.2023 144.047L38.659 144.769ZM4.96258 125.315L5.401 124.555L4.57934 124.635C4.60915 124.943 4.74646 125.187 4.96258 125.315ZM5.57326 124.513L14.7388 129.804L15.6048 130.304L15.1048 131.17L-0.460637 158.13C-0.55547 158.295 -0.580605 158.439 -0.579109 158.523L12.7057 166.193C12.7797 166.152 12.8919 166.059 12.9867 165.894L28.5522 138.934L29.0522 138.068L29.9182 138.568L39.0565 143.844C39.1303 143.803 39.2421 143.71 39.3369 143.546L5.57326 124.513ZM5.57326 124.513C5.57159 124.423 5.5997 124.283 5.68736 124.128C5.78267 123.959 5.9024 123.855 5.98655 123.814L36.5991 109.376L39.4548 143.128L39.4548 143.129C39.462 143.213 39.4379 143.372 39.3369 143.546L5.57326 124.513ZM39.1613 143.905L39.159 143.903C39.1598 143.904 39.1605 143.904 39.1613 143.905ZM12.654 166.216C12.654 166.216 12.6546 166.216 12.6559 166.216C12.6547 166.216 12.6541 166.216 12.654 166.216ZM-0.573035 158.58C-0.573061 158.579 -0.57325 158.579 -0.573553 158.578C-0.57316 158.579 -0.573008 158.58 -0.573035 158.58ZM36.7302 109.127L36.3759 108.375L36.7302 109.127Z" stroke="white" stroke-width="2"/>
</svg>
