<svg width="69" height="69" viewBox="0 0 69 69" fill="none" xmlns="http://www.w3.org/2000/svg">
<g clip-path="url(#clip0)">
<path d="M61.0578 50.5451C61.6172 50.5451 62.0705 50.0916 62.0705 49.5323V3.03816C62.0704 1.36288 60.7075 0 59.0322 0H13.6057C11.9304 0 10.5676 1.36288 10.5676 3.03816V8.33808C8.49701 8.74359 6.92969 10.5711 6.92969 12.7585C6.92969 14.946 8.49715 16.7736 10.5676 17.1791V19.2087C8.49701 19.6142 6.92969 21.4418 6.92969 23.6291C6.92969 25.8166 8.49715 27.6442 10.5676 28.0497V30.0793C8.49701 30.4851 6.92969 32.3126 6.92969 34.5C6.92969 36.6875 8.49715 38.5151 10.5676 38.9206V40.9502C8.49701 41.3557 6.92969 43.1832 6.92969 45.3707C6.92969 47.5581 8.49715 49.3857 10.5676 49.7912V51.8208C8.49701 52.2263 6.92969 54.0538 6.92969 56.2413C6.92969 58.4287 8.49715 60.2563 10.5676 60.6619V65.9618C10.5676 67.6371 11.9304 69 13.6057 69H59.0322C60.7075 69 62.0704 67.6371 62.0704 65.9618V53.5832C62.0704 53.0239 61.617 52.5705 61.0576 52.5705C60.4982 52.5705 60.0449 53.0238 60.0449 53.5832V65.9618C60.0449 66.5203 59.5906 66.9746 59.0321 66.9746H13.6057C13.0472 66.9746 12.5929 66.5203 12.5929 65.9618V54.0503C13.3781 54.467 13.9146 55.2923 13.9146 56.2415C13.9146 56.8007 14.3679 57.2542 14.9274 57.2542C15.4868 57.2542 15.9401 56.8007 15.9401 56.2415C15.9401 54.1576 14.5178 52.4002 12.5929 51.8879V43.1796C13.3781 43.5963 13.9146 44.4216 13.9146 45.3707C13.9146 45.93 14.3679 46.3835 14.9274 46.3835C15.4868 46.3835 15.9401 45.93 15.9401 45.3707C15.9401 43.2869 14.5178 41.5295 12.5929 41.0171V32.309C13.3781 32.7257 13.9146 33.551 13.9146 34.5C13.9146 35.0593 14.3679 35.5128 14.9274 35.5128C15.4868 35.5128 15.9401 35.0593 15.9401 34.5C15.9401 32.4161 14.5178 30.6589 12.5929 30.1464V21.4381C13.3781 21.8548 13.9146 22.6801 13.9146 23.6291C13.9146 24.1884 14.3679 24.6419 14.9274 24.6419C15.4868 24.6419 15.9401 24.1884 15.9401 23.6291C15.9401 21.5452 14.5178 19.788 12.5929 19.2755V10.5675C13.3781 10.9842 13.9146 11.8095 13.9146 12.7585C13.9146 13.3178 14.3679 13.7713 14.9274 13.7713C15.4868 13.7713 15.9401 13.3178 15.9401 12.7585C15.9401 10.6747 14.5178 8.91744 12.5929 8.40493V3.03816C12.5929 2.47969 13.0472 2.02539 13.6057 2.02539H59.0322C59.5907 2.02539 60.045 2.47969 60.045 3.03816V49.5323C60.045 50.0916 60.4983 50.5451 61.0578 50.5451ZM8.95508 12.7585C8.95508 11.6967 9.62729 10.7912 10.5676 10.4384V15.0787C9.62729 14.726 8.95508 13.8205 8.95508 12.7585ZM8.95508 23.6293C8.95508 22.5674 9.62729 21.662 10.5676 21.3091V25.9494C9.62729 25.5967 8.95508 24.6912 8.95508 23.6293ZM8.95508 34.5C8.95508 33.4382 9.62729 32.5327 10.5676 32.1799V36.8201C9.62729 36.4674 8.95508 35.562 8.95508 34.5ZM8.95508 45.3707C8.95508 44.3088 9.62729 43.4033 10.5676 43.0506V47.6909C9.62729 47.338 8.95508 46.4326 8.95508 45.3707ZM8.95508 56.2415C8.95508 55.1795 9.62729 54.274 10.5676 53.9213V58.5616C9.62729 58.2088 8.95508 57.3033 8.95508 56.2415Z" fill="white"/>
<path d="M40.2847 7.61743C39.7253 7.61743 39.2719 8.07078 39.2719 8.6302V13.0001C39.2719 13.5594 39.7253 14.0129 40.2847 14.0129C40.8441 14.0129 41.2974 13.5594 41.2974 13.0001V9.68595C46.9852 10.1729 51.5328 14.7201 52.0197 20.408H41.2974V17.0509C41.2974 16.4916 40.8441 16.0381 40.2847 16.0381C39.7253 16.0381 39.2719 16.4915 39.2719 17.0509V21.4208C39.2719 21.9801 39.7253 22.4336 40.2847 22.4336H53.0754C53.6348 22.4336 54.0882 21.9802 54.0882 21.4208C54.088 13.8095 47.8958 7.61743 40.2847 7.61743Z" fill="white"/>
<path d="M36.0998 12.6528C29.0448 12.6528 23.3052 18.3925 23.3052 25.4475C23.3052 26.0068 23.7585 26.4602 24.3179 26.4602C24.8774 26.4602 25.3307 26.0068 25.3307 25.4475C25.3307 19.8507 29.622 15.2374 35.0872 14.7254V25.4475C35.0887 25.5696 35.1108 25.691 35.1527 25.8057L38.9453 35.8323C38.0383 36.081 37.0848 36.2166 36.0998 36.2166C31.5698 36.2166 27.4963 33.3542 25.9633 29.094C25.7739 28.5677 25.194 28.2948 24.6675 28.4839C24.1413 28.6732 23.8681 29.2534 24.0576 29.7797C25.8788 34.8413 30.7182 38.242 36.0998 38.242C37.6728 38.242 39.18 37.956 40.5731 37.4345C40.5912 37.4288 40.6094 37.4236 40.6273 37.4168C40.6452 37.4101 40.6619 37.4017 40.6792 37.3942C45.4788 35.5482 48.8945 30.8896 48.8945 25.4475C48.8945 24.8882 48.4411 24.4347 47.8817 24.4347H37.1125V13.6655C37.1125 13.1062 36.6592 12.6528 36.0998 12.6528ZM40.839 35.1142L37.5655 26.4601H46.8218C46.4653 30.2654 44.1196 33.4995 40.839 35.1142Z" fill="white"/>
<path d="M53.0754 44.3582H22.9028C22.3434 44.3582 21.89 44.8116 21.89 45.3709C21.89 45.9302 22.3434 46.3837 22.9028 46.3837H53.0754C53.6349 46.3837 54.0882 45.9302 54.0882 45.3709C54.0882 44.8116 53.6347 44.3582 53.0754 44.3582Z" fill="white"/>
<path d="M54.0881 51.5574C54.0881 50.9982 53.6348 50.5447 53.0754 50.5447H22.9027C22.3432 50.5447 21.8899 50.9982 21.8899 51.5574C21.8899 52.1167 22.3432 52.5702 22.9027 52.5702H53.0754C53.6348 52.5702 54.0881 52.1169 54.0881 51.5574Z" fill="white"/>
<path d="M22.9027 56.7319C22.3432 56.7319 21.8899 57.1854 21.8899 57.7447C21.8899 58.304 22.3432 58.7575 22.9027 58.7575H44.3858C44.9452 58.7575 45.3986 58.304 45.3986 57.7447C45.3986 57.1854 44.9452 56.7319 44.3858 56.7319H22.9027Z" fill="white"/>
</g>
<defs>
<clipPath id="clip0">
<rect width="69" height="69" fill="white"/>
</clipPath>
</defs>
</svg>
