<svg width="64" height="64" viewBox="0 0 64 64" fill="none" xmlns="http://www.w3.org/2000/svg">
<path d="M32 45.4062C26.8819 45.4062 22.7188 49.5704 22.7188 54.6875C22.7188 59.8046 26.8819 63.9688 32 63.9688C37.1181 63.9688 41.2812 59.8046 41.2812 54.6875C41.2812 49.5704 37.1181 45.4062 32 45.4062ZM28.0575 60.7275C28.5721 59.0146 30.1664 57.7812 32 57.7812C33.8336 57.7812 35.4279 59.0146 35.9425 60.7275C34.8071 61.47 33.4541 61.9062 32 61.9062C30.5459 61.9062 29.1929 61.47 28.0575 60.7275ZM29.9375 53.6562C29.9375 52.5188 30.8625 51.5938 32 51.5938C33.1375 51.5938 34.0625 52.5188 34.0625 53.6562C34.0625 54.7937 33.1375 55.7188 32 55.7188C30.8625 55.7188 29.9375 54.7937 29.9375 53.6562ZM37.5718 59.2714C37.0108 58.0947 36.1003 57.1285 34.971 56.5035C35.6826 55.7631 36.125 54.7618 36.125 53.6562C36.125 51.3813 34.2749 49.5312 32 49.5312C29.7251 49.5312 27.875 51.3813 27.875 53.6562C27.875 54.7618 28.3174 55.7631 29.029 56.5046C27.8997 57.1295 26.9902 58.0947 26.4282 59.2724C25.4 58.0236 24.7812 56.4262 24.7812 54.6875C24.7812 50.7069 28.0204 47.4688 32 47.4688C35.9796 47.4688 39.2188 50.7069 39.2188 54.6875C39.2188 56.4262 38.6 58.0236 37.5718 59.2714Z" fill="white"/>
<path d="M32 0.03125C26.8819 0.03125 22.7188 4.19544 22.7188 9.3125C22.7188 10.5139 22.9559 11.6586 23.3726 12.7136C22.8415 12.5279 22.2805 12.4062 21.6875 12.4062C19.9818 12.4062 18.5938 13.7953 18.5938 15.5V18.0492C18.5938 19.9323 17.5903 21.704 15.9754 22.6734C14.4502 23.5891 13.3003 25.0226 12.7393 26.7087L12.7156 26.7808L0.03125 25.7238V43.3438H32C33.7057 43.3438 35.0938 41.9557 35.0938 40.25C35.0938 39.8427 35.0102 39.4559 34.8669 39.1002C36.1817 38.7423 37.1562 37.5512 37.1562 36.125C37.1562 35.3299 36.8458 34.6111 36.3519 34.0625C36.8469 33.5139 37.1562 32.7951 37.1562 32C37.1562 31.2049 36.8458 30.4861 36.3519 29.9375C36.8469 29.3889 37.1562 28.6701 37.1562 27.875C37.1562 26.1703 35.7692 24.7812 34.0635 24.7812H28.9062C27.7688 24.7812 26.8438 23.8562 26.8438 22.7188V17.5625C26.8438 17.3645 26.8066 17.1768 26.785 16.985C28.2731 17.9987 30.0674 18.5938 32 18.5938C37.1181 18.5938 41.2812 14.4296 41.2812 9.3125C41.2812 4.19544 37.1181 0.03125 32 0.03125ZM12.4062 41.2812H2.09375V27.9647L12.4062 28.8237V41.2812ZM28.9062 26.8438H34.0635C34.6317 26.8438 35.0938 27.3068 35.0938 27.875C35.0938 28.4432 34.6317 28.9062 34.0625 28.9062H26.8438V30.9688H34.0625C34.6317 30.9688 35.0938 31.4318 35.0938 32C35.0938 32.5682 34.6317 33.0312 34.0625 33.0312H26.8438V35.0938H34.0625C34.6317 35.0938 35.0938 35.5568 35.0938 36.125C35.0938 36.6932 34.6317 37.1562 34.0625 37.1562H26.8438V39.2188H32C32.5692 39.2188 33.0312 39.6808 33.0312 40.25C33.0312 40.8192 32.5692 41.2812 32 41.2812H14.4688V28.0421L14.6967 27.3614C15.103 26.1415 15.9331 25.1051 17.0376 24.443C19.2702 23.1034 20.6573 20.6532 20.6573 18.0503V15.501C20.6573 14.9328 21.1203 14.4698 21.6885 14.4698C23.3942 14.4698 24.7823 15.8578 24.7823 17.5635V22.7198C24.7812 24.9937 26.6313 26.8438 28.9062 26.8438ZM32 16.5312C28.0204 16.5312 24.7812 13.2931 24.7812 9.3125C24.7812 5.33188 28.0204 2.09375 32 2.09375C35.9796 2.09375 39.2188 5.33188 39.2188 9.3125C39.2188 13.2931 35.9796 16.5312 32 16.5312Z" fill="white"/>
<path d="M54.6875 22.7188C49.5694 22.7188 45.4062 26.8829 45.4062 32C45.4062 37.1171 49.5694 41.2812 54.6875 41.2812C59.8056 41.2812 63.9688 37.1171 63.9688 32C63.9688 26.8829 59.8056 22.7188 54.6875 22.7188ZM54.6875 39.2188C50.7079 39.2188 47.4688 35.9806 47.4688 32C47.4688 28.0194 50.7079 24.7812 54.6875 24.7812C58.6671 24.7812 61.9062 28.0194 61.9062 32C61.9062 35.9806 58.6671 39.2188 54.6875 39.2188Z" fill="white"/>
<path d="M57.7812 28.9062V33.0312H55.7188V26.8438H53.6562V33.0312H51.5938V30.9688H49.5312V35.0938H59.8438V28.9062H57.7812Z" fill="white"/>
<path d="M30.9688 8.28125H33.0312V10.3438H30.9688V8.28125Z" fill="white"/>
<path d="M35.0938 8.28125H37.1562V10.3438H35.0938V8.28125Z" fill="white"/>
<path d="M26.8438 8.28125H28.9062V10.3438H26.8438V8.28125Z" fill="white"/>
<path d="M53.813 18.1103L55.1907 20.3058L56.7294 12.6086L54.7071 12.2033L54.1543 14.9701C51.4896 11.4432 48.1421 8.80427 43.78 6.76343L42.9065 8.63205C47.6977 10.873 51.1637 13.8852 53.813 18.1103Z" fill="white"/>
<path d="M6.76324 20.2199L8.6329 21.0934C10.8717 16.3043 13.884 12.8382 18.1101 10.1869L20.3046 8.81016L12.6084 7.27051L12.2041 9.29176L14.971 9.84554C11.442 12.5113 8.80306 15.8588 6.76324 20.2199Z" fill="white"/>
<path d="M10.1869 45.8899L8.80919 43.6943L7.27057 51.3916L9.29285 51.7969L9.8456 49.03C12.5103 52.5569 15.8578 55.1959 20.22 57.2367L21.0945 55.3681C16.3023 53.1272 12.8362 50.1149 10.1869 45.8899Z" fill="white"/>
<path d="M57.2367 43.78L55.3671 42.9065C53.1282 47.6956 50.1159 51.1617 45.8899 53.813L43.6954 55.1897L51.3916 56.7294L51.7969 54.7071L49.03 54.1533C52.5579 51.4886 55.1969 48.1411 57.2367 43.78Z" fill="white"/>
</svg>
