<svg width="60" height="63" viewBox="0 0 60 63" fill="none" xmlns="http://www.w3.org/2000/svg">
<path d="M30 46.25C32.6234 46.25 34.75 44.1234 34.75 41.5C34.75 38.8766 32.6234 36.75 30 36.75C27.3766 36.75 25.25 38.8766 25.25 41.5C25.25 44.1234 27.3766 46.25 30 46.25Z" fill="white"/>
<path d="M59.1681 12.3318C51.4323 4.59596 40.9402 0.25 30 0.25C19.0599 0.25 8.56777 4.59596 0.831896 12.3318C0.691255 12.4725 0.612244 12.6632 0.612244 12.8621C0.612244 13.061 0.691255 13.2518 0.831896 13.3924L4.3674 16.9279C4.50805 17.0686 4.6988 17.1476 4.89771 17.1476C5.09661 17.1476 5.28737 17.0686 5.42802 16.9279C8.65486 13.7011 12.4857 11.1413 16.7018 9.39497C20.9179 7.64859 25.4367 6.74974 30.0001 6.74974C34.5636 6.74974 39.0824 7.64859 43.2985 9.39497C47.5146 11.1413 51.3454 13.7011 54.5723 16.9279C54.6419 16.9976 54.7246 17.0529 54.8156 17.0906C54.9066 17.1283 55.0041 17.1477 55.1026 17.1477C55.2011 17.1477 55.2987 17.1283 55.3897 17.0906C55.4807 17.0529 55.5634 16.9976 55.633 16.9279L59.1684 13.3924C59.309 13.2518 59.388 13.061 59.3879 12.8621C59.3879 12.6632 59.3088 12.4724 59.1681 12.3318Z" fill="white"/>
<path d="M46.617 25.633C46.7155 25.6331 46.813 25.6138 46.904 25.5761C46.995 25.5384 47.0777 25.4831 47.1473 25.4134L50.6829 21.8778C50.8235 21.7371 50.9025 21.5463 50.9025 21.3474C50.9025 21.1485 50.8235 20.9578 50.6829 20.8171C47.9668 18.101 44.7423 15.9465 41.1935 14.4765C37.6447 13.0066 33.8412 12.25 30 12.25C26.1588 12.25 22.3553 13.0066 18.8065 14.4765C15.2577 15.9465 12.0332 18.101 9.31713 20.8171C9.17648 20.9578 9.09747 21.1485 9.09747 21.3474C9.09747 21.5463 9.17648 21.7371 9.31713 21.8778L12.8528 25.4134C12.9934 25.554 13.1842 25.633 13.3831 25.633C13.582 25.633 13.7727 25.554 13.9134 25.4134C18.1798 21.147 23.9664 18.7501 30 18.7501C36.0337 18.7501 41.8202 21.147 46.0866 25.4134C46.1562 25.4832 46.2389 25.5385 46.3299 25.5762C46.4209 25.6139 46.5185 25.6332 46.617 25.633Z" fill="white"/>
<path d="M38.1319 34.1181C38.2304 34.1182 38.328 34.0988 38.419 34.0611C38.51 34.0235 38.5927 33.9682 38.6623 33.8985L42.1977 30.3623C42.2673 30.2927 42.3226 30.21 42.3603 30.119C42.398 30.028 42.4174 29.9305 42.4174 29.832C42.4174 29.7335 42.398 29.6359 42.3603 29.5449C42.3226 29.4539 42.2673 29.3712 42.1977 29.3016C38.9627 26.0666 34.5751 24.2493 30.0002 24.2493C25.4252 24.2493 21.0377 26.0666 17.8027 29.3016C17.733 29.3712 17.6777 29.4539 17.64 29.5449C17.6024 29.6359 17.5829 29.7335 17.5829 29.832C17.5829 29.9305 17.6024 30.028 17.64 30.119C17.6777 30.21 17.733 30.2927 17.8027 30.3623L21.3375 33.8985C21.4072 33.9681 21.4899 34.0234 21.5809 34.0611C21.6719 34.0988 21.7694 34.1182 21.8679 34.1182C21.9664 34.1182 22.064 34.0988 22.155 34.0611C22.246 34.0234 22.3286 33.9681 22.3983 33.8985C23.3965 32.9002 24.5816 32.1083 25.8859 31.568C27.1902 31.0278 28.5881 30.7497 29.9998 30.7497C31.4116 30.7497 32.8095 31.0278 34.1138 31.568C35.4181 32.1083 36.6032 32.9002 37.6014 33.8985C37.671 33.9682 37.7537 34.0236 37.8447 34.0613C37.9358 34.099 38.0334 34.1183 38.1319 34.1181Z" fill="white"/>
<path d="M47 49.5H13C11.8069 49.5013 10.6631 49.9759 9.81948 50.8195C8.97585 51.6631 8.50132 52.8069 8.5 54V58C8.50132 59.1931 8.97585 60.3369 9.81948 61.1805C10.6631 62.0241 11.8069 62.4987 13 62.5H47C48.1931 62.4987 49.3369 62.0241 50.1805 61.1805C51.0241 60.3369 51.4987 59.1931 51.5 58V54C51.4987 52.8069 51.0241 51.6631 50.1805 50.8195C49.3369 49.9759 48.1931 49.5013 47 49.5ZM48.5 58C48.4996 58.3977 48.3414 58.779 48.0602 59.0602C47.779 59.3414 47.3977 59.4996 47 59.5H13C12.6023 59.4996 12.221 59.3414 11.9398 59.0602C11.6586 58.779 11.5004 58.3977 11.5 58V54C11.5004 53.6023 11.6586 53.221 11.9398 52.9398C12.221 52.6586 12.6023 52.5004 13 52.5H47C47.3977 52.5004 47.779 52.6586 48.0602 52.9398C48.3414 53.221 48.4996 53.6023 48.5 54V58Z" fill="white"/>
<path d="M30 57.5C30.8284 57.5 31.5 56.8284 31.5 56C31.5 55.1716 30.8284 54.5 30 54.5C29.1716 54.5 28.5 55.1716 28.5 56C28.5 56.8284 29.1716 57.5 30 57.5Z" fill="white"/>
<path d="M36.163 57.5C36.9914 57.5 37.663 56.8284 37.663 56C37.663 55.1716 36.9914 54.5 36.163 54.5C35.3346 54.5 34.663 55.1716 34.663 56C34.663 56.8284 35.3346 57.5 36.163 57.5Z" fill="white"/>
<path d="M42.3262 57.5C43.1546 57.5 43.8262 56.8284 43.8262 56C43.8262 55.1716 43.1546 54.5 42.3262 54.5C41.4977 54.5 40.8262 55.1716 40.8262 56C40.8262 56.8284 41.4977 57.5 42.3262 57.5Z" fill="white"/>
<path d="M23.837 57.5C24.6655 57.5 25.337 56.8284 25.337 56C25.337 55.1716 24.6655 54.5 23.837 54.5C23.0086 54.5 22.337 55.1716 22.337 56C22.337 56.8284 23.0086 57.5 23.837 57.5Z" fill="white"/>
<path d="M17.6739 57.5C18.5023 57.5 19.1739 56.8284 19.1739 56C19.1739 55.1716 18.5023 54.5 17.6739 54.5C16.8455 54.5 16.1739 55.1716 16.1739 56C16.1739 56.8284 16.8455 57.5 17.6739 57.5Z" fill="white"/>
</svg>
