<svg width="57" height="57" viewBox="0 0 57 57" fill="none" xmlns="http://www.w3.org/2000/svg">
<path d="M45.8224 28.4419C36.0704 12.1154 22.0825 11.2172 11.726 27.5175L11.1774 28.4419L11.726 29.3664C12.0138 29.8512 18.8841 41.2428 28.4999 41.2428C38.1158 41.2428 44.9861 29.8512 45.2737 29.3664L45.8224 28.4419ZM38.0806 32.6628C28.3976 42.7649 20.1668 35.1812 15.4451 28.4398C25.0689 14.8232 34.0875 17.8311 41.5549 28.444C40.885 29.4217 39.6833 31.0423 38.0806 32.6628Z" fill="white"/>
<path d="M28.5 23.0076C25.5035 23.0076 23.0657 25.4454 23.0657 28.4419C23.3642 35.6513 33.6369 35.6491 33.9343 28.4419C33.9343 25.4454 31.4965 23.0076 28.5 23.0076ZM28.5 30.2533C27.5012 30.2533 26.6886 29.4407 26.6886 28.4419C26.7881 26.0387 30.2123 26.0394 30.3114 28.4419C30.3114 29.4407 29.4988 30.2533 28.5 30.2533Z" fill="white"/>
<path d="M26.6886 0.18335H30.3115V6.70454H26.6886V0.18335Z" fill="white"/>
<path d="M26.6886 50.4207H30.3115V56.9418H26.6886V50.4207Z" fill="white"/>
<path d="M50.358 26.7515H56.8792V30.3743H50.358V26.7515Z" fill="white"/>
<path d="M0.120789 26.7515H6.64198V30.3743H0.120789V26.7515Z" fill="white"/>
<path d="M3.62288 3.68074H13.8877V0.0578613H0V13.8296H3.62288V3.68074Z" fill="white"/>
<path d="M3.62288 43.0542H0V56.826H13.8877V53.2031H3.62288V43.0542Z" fill="white"/>
<path d="M43.1122 0.0578613V3.68074H53.3771V13.8296H57V0.0578613H43.1122Z" fill="white"/>
<path d="M53.3771 53.2031H43.1122V56.826H57V43.0542H53.3771V53.2031Z" fill="white"/>
</svg>
