<svg width="73" height="85" viewBox="0 0 73 85" fill="none" xmlns="http://www.w3.org/2000/svg">
<path d="M51.9227 10.5559C51.8586 10.2012 51.6734 9.93415 51.4075 9.81313C51.1418 9.68875 50.8159 9.72133 50.5016 9.90377L17.0831 29.3035C16.4313 29.691 16.0129 30.6046 16.1486 31.3438C16.2121 31.6891 16.3907 31.9511 16.6473 32.075L27.6445 37.2299L12.6624 69.192C12.2905 69.9856 12.4365 70.8387 12.9887 71.0975L28.9848 78.5956C29.5369 78.8544 30.2861 78.4209 30.6581 77.6274L45.6402 45.6653L56.5954 50.8005C57.1469 51.0608 57.8963 50.6287 58.2693 49.8357C58.4491 49.4533 58.5154 49.0367 58.4536 48.6782L51.9227 10.5559Z" fill="#131313"/>
</svg>
