<svg width="17" height="19" viewBox="0 0 17 19" fill="none" xmlns="http://www.w3.org/2000/svg">
<path d="M12.2148 2.67481C12.2075 2.59705 12.1725 2.53598 12.1173 2.50495C12.0622 2.47319 11.9913 2.47421 11.9201 2.5078L4.34709 6.07946C4.19923 6.1511 4.09204 6.34061 4.1077 6.50271C4.11502 6.57844 4.14876 6.6383 4.20186 6.66978L6.48101 7.98565L2.6566 14.6097C2.56165 14.7742 2.57745 14.9611 2.69188 15.0271L6.00702 16.9411C6.12145 17.0072 6.2912 16.9274 6.38615 16.763L10.2106 10.1389L12.481 11.4497C12.5953 11.5161 12.765 11.4367 12.8602 11.2723C12.9061 11.1931 12.9281 11.1044 12.9213 11.0258L12.2148 2.67481Z" fill="white"/>
</svg>
