<svg width="80" height="93" viewBox="0 0 80 93" fill="none" xmlns="http://www.w3.org/2000/svg">
<path d="M57.0161 11.5914C56.9458 11.2019 56.7424 10.9087 56.4504 10.7758C56.1587 10.6392 55.8008 10.675 55.4557 10.8753L18.7589 32.1781C18.0432 32.6036 17.5838 33.6068 17.7328 34.4185C17.8025 34.7977 17.9987 35.0854 18.2804 35.2214L30.3564 40.882L13.9046 75.9795C13.4962 76.8509 13.6566 77.7878 14.2629 78.072L31.8281 86.3056C32.4344 86.5898 33.2571 86.1138 33.6656 85.2424L50.1174 50.1449L62.1473 55.7839C62.7528 56.0697 63.5758 55.5952 63.9854 54.7244C64.1828 54.3046 64.2557 53.8471 64.1878 53.4533L57.0161 11.5914Z" fill="#131313"/>
</svg>
