<svg width="64" height="75" viewBox="0 0 64 75" fill="none" xmlns="http://www.w3.org/2000/svg">
<path d="M45.7913 9.30938C45.7348 8.99657 45.5715 8.76106 45.337 8.65433C45.1027 8.54464 44.8153 8.57337 44.5381 8.73426L15.0658 25.8431C14.491 26.1849 14.1221 26.9906 14.2417 27.6425C14.2977 27.9471 14.4552 28.1781 14.6815 28.2874L24.3801 32.8336L11.1672 61.0214C10.8392 61.7212 10.968 62.4736 11.4549 62.7019L25.5621 69.3145C26.049 69.5428 26.7097 69.1605 27.0378 68.4606L40.2507 40.2728L49.9123 44.8016C50.3986 45.0312 51.0596 44.6501 51.3885 43.9507C51.5471 43.6136 51.6056 43.2461 51.5511 42.9299L45.7913 9.30938Z" fill="#131313"/>
</svg>
